<?xml version="1.0" encoding="utf-8"?><!--Generator: Adobe Illustrator 26.3.1, SVG Export Plug-In . SVG Version: 6.00 Build 0)--><svg version="1.1" id="Layer_1" xmlns="http://www.w3.org/2000/svg" xmlns:xlink="http://www.w3.org/1999/xlink" x="0px" y="0px" viewBox="0 0 595.3 152" style="enable-background:new 0 0 595.3 152;" xml:space="preserve"><style type="text/css">.st0{fill:#FFC511;}
	.st1{fill:#FFFFFF;}
	.st2{fill:#1D1D1B;}</style><g><path class="st0" d="M66.8,42.5H107c9.4,0,17,7.6,17,17v40.2c0,9.4-7.6,17-17,17H66.8c-9.4,0-17-7.6-17-17V59.5
		C49.9,50.1,57.4,42.5,66.8,42.5z"/><circle class="st1" cx="103.2" cy="61.3" r="7.4"/><path class="st1" d="M86.6,75.2l7,0l-0.1,22.1c0,3.7-3,6.7-6.7,6.7l0,0c-3.9,0-7-3.2-7-7l0.1-15.1C79.8,78.2,82.9,75.2,86.6,75.2z"/><path class="st1" d="M86.6,70.9l7,0l-0.1,22.1c0,3.7-3,6.7-6.7,6.7l0,0c-3.9,0-7-3.2-7-7l0.1-15.1C79.8,73.9,82.9,70.9,86.6,70.9z"/><path class="st1" d="M91.7,61.1v7H69.6c-3.7,0-6.7-3-6.7-6.7l0,0c0-3.9,3.1-7,7-7h15.1C88.8,54.4,91.7,57.4,91.7,61.1z"/><path class="st1" d="M93.5,61.1v7H71.4c-3.7,0-6.7-3-6.7-6.7l0,0c0-3.9,3.1-7,7-7h15.1C90.5,54.4,93.5,57.4,93.5,61.1z"/></g><g><path class="st2" d="M136.5,98.7V59.1c0-3,2.4-5.4,5.4-5.4c2.9,0,5.3,2.4,5.3,5.4v39.7c0,3-2.4,5.4-5.4,5.4
		C138.9,104.1,136.5,101.7,136.5,98.7z"/><path class="st2" d="M204,68.8v29.9c0,3-2.4,5.4-5.4,5.4c-2.9,0-5.3-2.4-5.3-5.4v-26c0-7.7-3.9-10.2-9.9-10.2
		c-5.5,0-10.2,3.3-12.6,6.6v29.6c0,3-2.4,5.4-5.3,5.4c-3,0-5.4-2.4-5.4-5.4V59.1c0-3,2.4-5.4,5.3-5.4c3,0,5.4,2.4,5.4,5.4V61
		c3.3-3.9,9.6-8,17.3-8C198.7,53,204,58.7,204,68.8z"/><path class="st2" d="M223.2,98.1V46h-15.9c-2.9,0-5.3-2.3-5.3-5.2c0-3,2.4-5.3,5.3-5.3H251c2.9,0,5.3,2.3,5.3,5.3
		c0,2.9-2.4,5.2-5.3,5.2h-15.9v52.1c0,3.3-2.7,6-5.9,6C225.8,104.1,223.2,101.4,223.2,98.1z"/><path class="st2" d="M294.6,70.9v27.8c0,3-2.4,5.4-5.4,5.4c-2.9,0-5.3-2.4-5.3-5.4v-0.5c-3.7,4.2-9.4,6.5-15.9,6.5
		c-8.1,0-17.1-5.4-17.1-16.3c0-11.3,9.1-16,17.1-16c6.6,0,12.3,2.1,15.9,6.3v-7.3c0-5.7-4.7-9.2-11.5-9.2c-4.2,0-7.9,1.1-11.5,3.7
		c-0.6,0.4-1.5,0.7-2.4,0.7c-2.3,0-4.3-1.9-4.3-4.3c0-1.4,0.8-2.8,1.8-3.5c5.4-4,11.5-5.8,18.2-5.8C285,53,294.6,57.6,294.6,70.9z
		 M283.9,92.3v-7.4c-2.4-3.4-7-5.1-11.7-5.1c-6,0-10.5,3.5-10.5,8.9c0,5.3,4.5,8.8,10.5,8.8C276.8,97.4,281.4,95.7,283.9,92.3z"/><path class="st2" d="M351.4,68.8v29.9c0,3-2.4,5.4-5.4,5.4c-2.9,0-5.3-2.4-5.3-5.4v-26c0-7.7-3.9-10.2-9.9-10.2
		c-5.5,0-10.2,3.3-12.6,6.6v29.6c0,3-2.4,5.4-5.3,5.4c-3,0-5.4-2.4-5.4-5.4V59.1c0-3,2.4-5.4,5.3-5.4c3,0,5.4,2.4,5.4,5.4V61
		c3.3-3.9,9.6-8,17.3-8C346.1,53,351.4,58.7,351.4,68.8z"/><path class="st2" d="M409.6,40.3v58.4c0,3-2.4,5.4-5.4,5.4c-2.9,0-5.3-2.4-5.3-5.4v-1.8c-3.8,4.8-9.5,7.9-15.8,7.9
		c-12.6,0-21.9-9.6-21.9-25.8c0-15.9,9.2-25.9,21.9-25.9c6.1,0,11.8,2.9,15.8,8.1V40.3c0-3,2.4-5.4,5.3-5.4
		C407.2,34.9,409.6,37.3,409.6,40.3z M398.9,88.7V69.2c-2.4-3.7-7.7-6.6-12.8-6.6c-8.5,0-13.9,6.8-13.9,16.4
		c0,9.5,5.4,16.3,13.9,16.3C391.3,95.3,396.5,92.4,398.9,88.7z"/><path class="st2" d="M444.4,53c14.8,0,24.3,11.3,24.3,24.4c0,3.2-2.2,5-6.3,5h-31.7c0.8,7.4,6.4,13.6,15.7,13.6
		c3.6,0,7.8-1.1,11.2-3.3c0.6-0.4,1.4-0.6,2.3-0.6c2.3,0,4.3,1.9,4.3,4.3c0,1.5-0.8,2.8-1.9,3.6c-4.9,3.3-10.8,4.8-17,4.8
		c-14.8,0-25.8-10.3-25.8-25.9C419.4,64.6,429.8,53,444.4,53z M430.5,74.9h27.7c-0.2-5.8-4.2-13.1-13.9-13.1
		C435.2,61.8,431.1,68.8,430.5,74.9z"/><path class="st2" d="M549.4,67.9v30.8c0,3-2.4,5.4-5.4,5.4c-2.9,0-5.3-2.4-5.3-5.4V71.4c0-5.3-2.3-8.9-8.1-8.9
		c-4.8,0-9.3,3.4-11.4,6.5v29.7c0,3-2.4,5.4-5.4,5.4c-2.9,0-5.3-2.4-5.3-5.4V71.4c0-5.3-2.3-8.9-8.2-8.9c-4.7,0-9.1,3.4-11.3,6.6
		v29.6c0,3-2.4,5.4-5.3,5.4c-3,0-5.4-2.4-5.4-5.4V59.1c0-3,2.4-5.4,5.3-5.4c3,0,5.4,2.4,5.4,5.4V61c2-3,8.6-8,16-8
		c7.3,0,11.8,3.7,13.5,9.1c2.9-4.5,9.4-9.1,16.7-9.1C544.3,53,549.4,57.9,549.4,67.9z"/></g></svg>